<mxfile host="65bd71144e">
    <diagram id="JucuQe1479F7ddFB8Y5U" name="Page-1">
        <mxGraphModel dx="811" dy="1625" grid="1" gridSize="10" guides="1" tooltips="1" connect="1" arrows="1" fold="1" page="1" pageScale="1" pageWidth="850" pageHeight="1100" math="0" shadow="0">
            <root>
                <mxCell id="0"/>
                <mxCell id="1" parent="0"/>
                <mxCell id="19" style="edgeStyle=none;html=1;entryX=0;entryY=0.5;entryDx=0;entryDy=0;" parent="1" source="2" target="3" edge="1">
                    <mxGeometry relative="1" as="geometry"/>
                </mxCell>
                <mxCell id="20" style="edgeStyle=none;html=1;entryX=0;entryY=0.25;entryDx=0;entryDy=0;" parent="1" source="2" target="4" edge="1">
                    <mxGeometry relative="1" as="geometry"/>
                </mxCell>
                <mxCell id="2" value="Pet" style="whiteSpace=wrap;html=1;" parent="1" vertex="1">
                    <mxGeometry x="170" y="80" width="120" height="60" as="geometry"/>
                </mxCell>
                <mxCell id="18" style="edgeStyle=none;html=1;entryX=1;entryY=0.25;entryDx=0;entryDy=0;exitX=0;exitY=0.158;exitDx=0;exitDy=0;exitPerimeter=0;" parent="1" source="3" target="2" edge="1">
                    <mxGeometry relative="1" as="geometry"/>
                </mxCell>
                <mxCell id="3" value="Appointment" style="whiteSpace=wrap;html=1;" parent="1" vertex="1">
                    <mxGeometry x="510" y="80" width="120" height="60" as="geometry"/>
                </mxCell>
                <mxCell id="21" style="edgeStyle=none;html=1;entryX=0.319;entryY=1.006;entryDx=0;entryDy=0;entryPerimeter=0;exitX=0;exitY=0.75;exitDx=0;exitDy=0;" parent="1" source="4" target="2" edge="1">
                    <mxGeometry relative="1" as="geometry"/>
                </mxCell>
                <mxCell id="4" value="Owner" style="whiteSpace=wrap;html=1;" parent="1" vertex="1">
                    <mxGeometry x="365" y="220" width="120" height="60" as="geometry"/>
                </mxCell>
                <mxCell id="22" value="appointment belongs to pet" style="text;html=1;align=center;verticalAlign=middle;resizable=0;points=[];autosize=1;strokeColor=none;fillColor=none;" parent="1" vertex="1">
                    <mxGeometry x="310" y="70" width="170" height="30" as="geometry"/>
                </mxCell>
                <mxCell id="23" value="pet has many appointments" style="text;html=1;align=center;verticalAlign=middle;resizable=0;points=[];autosize=1;strokeColor=none;fillColor=none;" parent="1" vertex="1">
                    <mxGeometry x="310" y="100" width="170" height="30" as="geometry"/>
                </mxCell>
                <mxCell id="29" style="edgeStyle=none;html=1;entryX=0;entryY=0.25;entryDx=0;entryDy=0;" parent="1" source="30" target="36" edge="1">
                    <mxGeometry relative="1" as="geometry"/>
                </mxCell>
                <mxCell id="30" value="Pet" style="whiteSpace=wrap;html=1;" parent="1" vertex="1">
                    <mxGeometry x="150" y="-260" width="120" height="60" as="geometry"/>
                </mxCell>
                <mxCell id="35" style="edgeStyle=none;html=1;entryX=0.319;entryY=1.006;entryDx=0;entryDy=0;entryPerimeter=0;exitX=0;exitY=0.75;exitDx=0;exitDy=0;" parent="1" source="36" target="30" edge="1">
                    <mxGeometry relative="1" as="geometry"/>
                </mxCell>
                <mxCell id="36" value="Owner" style="whiteSpace=wrap;html=1;" parent="1" vertex="1">
                    <mxGeometry x="340" y="-70" width="120" height="60" as="geometry"/>
                </mxCell>
                <mxCell id="41" value="pet belongs to an owner" style="text;html=1;align=center;verticalAlign=middle;resizable=0;points=[];autosize=1;strokeColor=none;fillColor=none;rotation=50;" parent="1" vertex="1">
                    <mxGeometry x="220" y="-150" width="150" height="30" as="geometry"/>
                </mxCell>
                <mxCell id="42" value="owner has many pets" style="text;html=1;align=center;verticalAlign=middle;resizable=0;points=[];autosize=1;strokeColor=none;fillColor=none;rotation=50;" parent="1" vertex="1">
                    <mxGeometry x="180" y="-130" width="140" height="30" as="geometry"/>
                </mxCell>
                <mxCell id="55" style="edgeStyle=none;html=1;entryX=0;entryY=0.5;entryDx=0;entryDy=0;" parent="1" source="57" target="60" edge="1">
                    <mxGeometry relative="1" as="geometry"/>
                </mxCell>
                <mxCell id="56" style="edgeStyle=none;html=1;entryX=0;entryY=0.25;entryDx=0;entryDy=0;" parent="1" source="57" target="63" edge="1">
                    <mxGeometry relative="1" as="geometry"/>
                </mxCell>
                <mxCell id="57" value="Pet" style="whiteSpace=wrap;html=1;" parent="1" vertex="1">
                    <mxGeometry x="170" y="870" width="120" height="60" as="geometry"/>
                </mxCell>
                <mxCell id="58" style="edgeStyle=none;html=1;entryX=1;entryY=0.75;entryDx=0;entryDy=0;exitX=0.799;exitY=1.047;exitDx=0;exitDy=0;exitPerimeter=0;" parent="1" source="60" target="63" edge="1">
                    <mxGeometry relative="1" as="geometry"/>
                </mxCell>
                <mxCell id="59" style="edgeStyle=none;html=1;entryX=1;entryY=0.25;entryDx=0;entryDy=0;exitX=0;exitY=0.158;exitDx=0;exitDy=0;exitPerimeter=0;" parent="1" source="60" target="57" edge="1">
                    <mxGeometry relative="1" as="geometry"/>
                </mxCell>
                <mxCell id="60" value="Appointment" style="whiteSpace=wrap;html=1;" parent="1" vertex="1">
                    <mxGeometry x="510" y="870" width="120" height="60" as="geometry"/>
                </mxCell>
                <mxCell id="61" style="edgeStyle=none;html=1;entryX=0.403;entryY=1.019;entryDx=0;entryDy=0;entryPerimeter=0;exitX=1;exitY=0.25;exitDx=0;exitDy=0;" parent="1" source="63" target="60" edge="1">
                    <mxGeometry relative="1" as="geometry">
                        <Array as="points">
                            <mxPoint x="520" y="1010"/>
                        </Array>
                    </mxGeometry>
                </mxCell>
                <mxCell id="62" style="edgeStyle=none;html=1;entryX=0.319;entryY=1.006;entryDx=0;entryDy=0;entryPerimeter=0;exitX=0;exitY=0.75;exitDx=0;exitDy=0;" parent="1" source="63" target="57" edge="1">
                    <mxGeometry relative="1" as="geometry"/>
                </mxCell>
                <mxCell id="63" value="Owner" style="whiteSpace=wrap;html=1;" parent="1" vertex="1">
                    <mxGeometry x="360" y="1060" width="120" height="60" as="geometry"/>
                </mxCell>
                <mxCell id="64" value="appointment belongs to pet" style="text;html=1;align=center;verticalAlign=middle;resizable=0;points=[];autosize=1;strokeColor=none;fillColor=none;" parent="1" vertex="1">
                    <mxGeometry x="310" y="860" width="170" height="30" as="geometry"/>
                </mxCell>
                <mxCell id="65" value="pet has many appointments" style="text;html=1;align=center;verticalAlign=middle;resizable=0;points=[];autosize=1;strokeColor=none;fillColor=none;" parent="1" vertex="1">
                    <mxGeometry x="310" y="890" width="170" height="30" as="geometry"/>
                </mxCell>
                <mxCell id="66" value="appointment belongs to owner&lt;br&gt;" style="text;html=1;align=center;verticalAlign=middle;resizable=0;points=[];autosize=1;strokeColor=none;fillColor=none;rotation=-55;" parent="1" vertex="1">
                    <mxGeometry x="470" y="1000" width="180" height="30" as="geometry"/>
                </mxCell>
                <mxCell id="67" value="owner has many appointments" style="text;html=1;align=center;verticalAlign=middle;resizable=0;points=[];autosize=1;strokeColor=none;fillColor=none;rotation=-60;" parent="1" vertex="1">
                    <mxGeometry x="420" y="980" width="190" height="30" as="geometry"/>
                </mxCell>
                <mxCell id="68" style="edgeStyle=none;html=1;entryX=0;entryY=0.5;entryDx=0;entryDy=0;" parent="1" source="70" target="72" edge="1">
                    <mxGeometry relative="1" as="geometry"/>
                </mxCell>
                <mxCell id="69" style="edgeStyle=none;html=1;entryX=0;entryY=0.25;entryDx=0;entryDy=0;" parent="1" source="70" target="75" edge="1">
                    <mxGeometry relative="1" as="geometry"/>
                </mxCell>
                <mxCell id="83" style="edgeStyle=none;html=1;entryX=0;entryY=1;entryDx=0;entryDy=0;" parent="1" source="70" target="77" edge="1">
                    <mxGeometry relative="1" as="geometry">
                        <mxPoint x="536" y="510" as="targetPoint"/>
                        <Array as="points">
                            <mxPoint x="326" y="500"/>
                            <mxPoint x="466" y="520"/>
                            <mxPoint x="616" y="500"/>
                        </Array>
                    </mxGeometry>
                </mxCell>
                <mxCell id="70" value="Pet" style="whiteSpace=wrap;html=1;" parent="1" vertex="1">
                    <mxGeometry x="41" y="390" width="120" height="60" as="geometry"/>
                </mxCell>
                <mxCell id="71" style="edgeStyle=none;html=1;exitX=0;exitY=0.158;exitDx=0;exitDy=0;exitPerimeter=0;" parent="1" source="72" edge="1">
                    <mxGeometry relative="1" as="geometry">
                        <mxPoint x="166" y="399" as="targetPoint"/>
                    </mxGeometry>
                </mxCell>
                <mxCell id="78" style="edgeStyle=none;html=1;exitX=1;exitY=0.25;exitDx=0;exitDy=0;entryX=0;entryY=0.25;entryDx=0;entryDy=0;" parent="1" source="72" target="77" edge="1">
                    <mxGeometry relative="1" as="geometry"/>
                </mxCell>
                <mxCell id="72" value="Appointment" style="whiteSpace=wrap;html=1;" parent="1" vertex="1">
                    <mxGeometry x="381" y="390" width="120" height="60" as="geometry"/>
                </mxCell>
                <mxCell id="73" style="edgeStyle=none;html=1;entryX=0.319;entryY=1.006;entryDx=0;entryDy=0;entryPerimeter=0;exitX=0;exitY=0.75;exitDx=0;exitDy=0;" parent="1" source="75" target="70" edge="1">
                    <mxGeometry relative="1" as="geometry"/>
                </mxCell>
                <mxCell id="74" value="pet has many appointments" style="text;html=1;align=center;verticalAlign=middle;resizable=0;points=[];autosize=1;strokeColor=none;fillColor=none;" parent="1" vertex="1">
                    <mxGeometry x="181" y="410" width="170" height="30" as="geometry"/>
                </mxCell>
                <mxCell id="75" value="Owner" style="whiteSpace=wrap;html=1;" parent="1" vertex="1">
                    <mxGeometry x="231" y="580" width="120" height="60" as="geometry"/>
                </mxCell>
                <mxCell id="76" value="appointment belongs to pet" style="text;html=1;align=center;verticalAlign=middle;resizable=0;points=[];autosize=1;strokeColor=none;fillColor=none;" parent="1" vertex="1">
                    <mxGeometry x="181" y="380" width="170" height="30" as="geometry"/>
                </mxCell>
                <mxCell id="77" value="Procedure" style="whiteSpace=wrap;html=1;" parent="1" vertex="1">
                    <mxGeometry x="706" y="390" width="120" height="60" as="geometry"/>
                </mxCell>
                <mxCell id="81" value="appointment belongs to procedure" style="text;html=1;align=center;verticalAlign=middle;resizable=0;points=[];autosize=1;strokeColor=none;fillColor=none;" parent="1" vertex="1">
                    <mxGeometry x="496" y="380" width="210" height="30" as="geometry"/>
                </mxCell>
                <mxCell id="84" value="pet has many procedures through appointments&amp;nbsp;&lt;br&gt;" style="text;html=1;align=center;verticalAlign=middle;resizable=0;points=[];autosize=1;strokeColor=none;fillColor=none;" parent="1" vertex="1">
                    <mxGeometry x="331" y="520" width="280" height="30" as="geometry"/>
                </mxCell>
                <mxCell id="86" style="edgeStyle=none;html=1;exitX=0;exitY=0.158;exitDx=0;exitDy=0;exitPerimeter=0;" edge="1" parent="1">
                    <mxGeometry relative="1" as="geometry">
                        <mxPoint x="500" y="439" as="targetPoint"/>
                        <mxPoint x="706" y="439.4799999999998" as="sourcePoint"/>
                    </mxGeometry>
                </mxCell>
                <mxCell id="87" value="procedure has many appointments" style="text;html=1;align=center;verticalAlign=middle;resizable=0;points=[];autosize=1;strokeColor=none;fillColor=none;" vertex="1" parent="1">
                    <mxGeometry x="501" y="420" width="210" height="30" as="geometry"/>
                </mxCell>
                <mxCell id="92" value="procedure has many pets through appointment" style="text;html=1;align=center;verticalAlign=middle;resizable=0;points=[];autosize=1;strokeColor=none;fillColor=none;" vertex="1" parent="1">
                    <mxGeometry x="279" y="320" width="270" height="30" as="geometry"/>
                </mxCell>
                <mxCell id="94" value="" style="endArrow=classic;html=1;entryX=0.95;entryY=-0.061;entryDx=0;entryDy=0;entryPerimeter=0;" edge="1" parent="1" target="70">
                    <mxGeometry width="50" height="50" relative="1" as="geometry">
                        <mxPoint x="706" y="390" as="sourcePoint"/>
                        <mxPoint x="160" y="350" as="targetPoint"/>
                        <Array as="points">
                            <mxPoint x="590" y="360"/>
                            <mxPoint x="440" y="350"/>
                            <mxPoint x="260" y="350"/>
                        </Array>
                    </mxGeometry>
                </mxCell>
            </root>
        </mxGraphModel>
    </diagram>
</mxfile>